<?xml version="1.0" encoding="UTF-8" standalone="no"?>
<!-- Created with Inkscape (http://www.inkscape.org/) -->

<svg
   width="1280"
   height="720"
   viewBox="0 0 338.66666 190.5"
   version="1.1"
   id="svg1"
   inkscape:version="1.4.3 (0d15f75, 2025-12-25)"
   sodipodi:docname="Thumbnail.svg"
   inkscape:export-filename="Thumbnail.png"
   inkscape:export-xdpi="96"
   inkscape:export-ydpi="96"
   xmlns:inkscape="http://www.inkscape.org/namespaces/inkscape"
   xmlns:sodipodi="http://sodipodi.sourceforge.net/DTD/sodipodi-0.dtd"
   xmlns="http://www.w3.org/2000/svg"
   xmlns:svg="http://www.w3.org/2000/svg">
  <sodipodi:namedview
     id="namedview1"
     pagecolor="#ffffff"
     bordercolor="#000000"
     borderopacity="0.25"
     inkscape:showpageshadow="2"
     inkscape:pageopacity="0.0"
     inkscape:pagecheckerboard="0"
     inkscape:deskcolor="#d1d1d1"
     inkscape:document-units="mm"
     inkscape:zoom="0.5"
     inkscape:cx="565"
     inkscape:cy="491"
     inkscape:window-width="1920"
     inkscape:window-height="1022"
     inkscape:window-x="1470"
     inkscape:window-y="30"
     inkscape:window-maximized="0"
     inkscape:current-layer="layer1" />
  <defs
     id="defs1" />
  <g
     inkscape:label="Layer 1"
     inkscape:groupmode="layer"
     id="layer1">
    <rect
       style="fill:#000000;stroke-width:0.601093"
       id="rect2"
       width="360.36249"
       height="105.83334"
       x="-10.583333"
       y="84.666664" />
    <path
       d="m 53.05995,119.92148 v -2.34835 h 21.135239 v 2.34835 h -4.202328 c -2.059965,0 -3.089947,0.72099 -3.089947,2.16298 v 25.95555 c 0,4.36712 0.947584,7.60126 2.842751,9.70243 1.936367,2.05997 4.923317,3.08995 8.960848,3.08995 4.03753,0 7.189276,-1.05058 9.455237,-3.15174 2.265961,-2.10117 3.398942,-4.98512 3.398942,-8.65186 v -21.07344 c 0,-5.35591 -1.75097,-8.03387 -5.25291,-8.03387 h -1.79217 v -2.34835 h 17.303698 v 2.34835 h -1.29777 c -3.831527,0 -5.747298,2.01877 -5.747298,6.0563 v 22.55662 c 0,4.94391 -1.483176,8.79605 -4.449528,11.5564 -2.96635,2.76035 -7.148079,4.14053 -12.545186,4.14053 -11.618201,0 -17.427302,-4.79972 -17.427302,-14.39916 v -27.74771 c 0,-1.44199 -0.968184,-2.16298 -2.904551,-2.16298 z m 50.28761,16.56213 v -2.22476 l 10.38222,-0.49439 v 11.67999 c 1.15358,-3.91393 2.51315,-6.83908 4.07872,-8.77545 1.56558,-1.93636 3.50195,-2.90454 5.80911,-2.90454 1.56557,0 2.80155,0.49439 3.70794,1.48316 0.94759,0.94759 1.42138,2.26596 1.42138,3.95513 0,1.15359 -0.309,2.10117 -0.92699,2.84276 -0.61799,0.74159 -1.42137,1.11238 -2.41015,1.11238 -0.90639,0 -1.64798,-0.309 -2.22478,-0.92699 -0.53559,-0.65919 -0.80338,-1.50377 -0.80338,-2.53376 0,-0.57678 0.1442,-1.17417 0.4326,-1.79216 0.28839,-0.61799 0.43259,-0.98878 0.43259,-1.11238 0,-0.0824 -0.0824,-0.1648 -0.2472,-0.2472 -0.0412,0 -0.1442,-0.0206 -0.309,-0.0617 -1.77156,0 -3.58433,1.73037 -5.4383,5.19111 -1.81277,3.41954 -2.71915,7.04508 -2.71915,10.87662 v 6.1799 c 0,1.44197 1.09178,2.16295 3.27533,2.16295 h 3.70795 v 2.34836 h -17.9835 v -2.34836 h 2.84275 c 2.01877,0 3.02815,-0.65919 3.02815,-1.97756 v -18.41614 c 0,-2.67795 -1.17418,-4.01692 -3.52254,-4.01692 z m 34.40531,1.97756 c 0,0.16479 0.35019,0.84458 1.05058,2.03936 0.37079,0.61799 0.55619,1.17419 0.55619,1.66858 0,2.05996 -1.07118,3.08994 -3.21354,3.08994 -1.07118,0 -1.95696,-0.309 -2.65735,-0.92699 -0.65919,-0.65919 -0.98879,-1.58617 -0.98879,-2.78094 0,-2.14237 1.19478,-4.01694 3.58435,-5.62371 2.38955,-1.64797 5.3765,-2.47195 8.96084,-2.47195 3.25474,0 5.8091,0.72098 7.66307,2.16295 1.89517,1.40077 2.84275,3.23414 2.84275,5.50011 v 15.88232 c 0,2.67796 0.82398,4.01694 2.47195,4.01694 0.4532,0 0.8652,-0.0618 1.23599,-0.18539 0.41199,-0.1648 0.84458,-0.412 1.29777,-0.74159 l 1.17418,1.66857 c -1.48317,1.56557 -3.13115,2.34835 -4.94392,2.34835 -2.84275,0 -4.88211,-1.73037 -6.11808,-5.19111 -1.81277,1.89517 -3.37835,3.19295 -4.69673,3.89334 -1.60677,0.86518 -3.56373,1.29777 -5.8709,1.29777 -2.84275,0 -5.06751,-0.61798 -6.67428,-1.85395 -1.56557,-1.23599 -2.34836,-2.88396 -2.34836,-4.94393 0,-2.92515 1.68917,-5.39711 5.06751,-7.41588 3.41954,-2.05996 8.17806,-3.44013 14.27555,-4.14052 v -4.32592 c 0,-1.68917 -0.63859,-3.06935 -1.91577,-4.14053 -1.23597,-1.07118 -2.80155,-1.60677 -4.69672,-1.60677 -1.60677,0 -3.02814,0.32959 -4.26411,0.98878 -1.19479,0.61799 -1.79218,1.21538 -1.79218,1.79217 z m 12.66878,13.53397 v -4.14054 c -4.77911,0.65919 -8.26045,1.66858 -10.44401,3.02816 -2.14237,1.31837 -3.21355,3.25474 -3.21355,5.80909 0,1.56557 0.41199,2.80155 1.23598,3.70794 0.86518,0.86519 2.01876,1.29778 3.46074,1.29778 2.38956,0 4.47012,-0.90638 6.24169,-2.71915 1.81277,-1.85397 2.71915,-4.18173 2.71915,-6.98328 z m 31.33819,-32.07366 v -2.34835 h 20.88804 v 2.34835 h -4.44952 c -1.93638,0 -2.90456,0.86518 -2.90456,2.59555 v 21.19704 l 17.18011,-18.35428 c 0.412,-0.49439 0.74159,-1.00938 0.98878,-1.54497 0.2884,-0.57679 0.4326,-1.11239 0.4326,-1.60678 0,-1.52437 -1.44198,-2.28656 -4.32592,-2.28656 h -1.23599 v -2.34835 h 18.72508 v 2.34835 h -1.42138 c -2.88395,0 -5.6649,1.38018 -8.34285,4.14053 l -10.56762,11.00022 15.14074,22.433 c 1.56556,2.26597 3.50193,3.39895 5.8091,3.39895 h 1.73037 v 2.34837 h -20.64084 v -2.34837 h 3.33714 c 0.90638,0 1.66856,-0.1236 2.28656,-0.37079 0.65918,-0.28839 0.98878,-0.65919 0.98878,-1.11239 0,-0.41199 -0.1236,-0.80338 -0.3708,-1.17417 l -12.60698,-18.53969 -7.10688,7.66307 v 11.24741 c 0,0.70039 0.2678,1.25659 0.8034,1.66858 0.53558,0.41199 1.23597,0.61798 2.10116,0.61798 h 4.44952 v 2.34837 h -20.88804 v -2.34837 h 4.07873 c 1.97756,0 2.96634,-0.76219 2.96634,-2.28656 v -36.52316 c 0,-0.86519 -0.2884,-1.44198 -0.86518,-1.73038 -0.5356,-0.2884 -1.46258,-0.4326 -2.78096,-0.4326 z m 56.46744,18.53969 c 0,0.16479 0.35019,0.84458 1.05058,2.03936 0.37079,0.61799 0.55619,1.17419 0.55619,1.66858 0,2.05996 -1.07119,3.08994 -3.21355,3.08994 -1.07118,0 -1.95696,-0.309 -2.65734,-0.92699 -0.65919,-0.65919 -0.98878,-1.58617 -0.98878,-2.78094 0,-2.14237 1.19477,-4.01694 3.58433,-5.62371 2.38956,-1.64797 5.37651,-2.47195 8.96085,-2.47195 3.25474,0 5.8091,0.72098 7.66307,2.16295 1.89516,1.40077 2.84274,3.23414 2.84274,5.50011 v 15.88232 c 0,2.67796 0.82399,4.01694 2.47197,4.01694 0.45319,0 0.86518,-0.0618 1.23598,-0.18539 0.41198,-0.1648 0.84457,-0.412 1.29777,-0.74159 l 1.17418,1.66857 c -1.48318,1.56557 -3.13115,2.34835 -4.94391,2.34835 -2.84276,0 -4.88212,-1.73037 -6.1181,-5.19111 -1.81278,1.89517 -3.37835,3.19295 -4.69672,3.89334 -1.60678,0.86518 -3.56374,1.29777 -5.87089,1.29777 -2.84277,0 -5.06753,-0.61798 -6.67429,-1.85395 -1.56558,-1.23599 -2.34837,-2.88396 -2.34837,-4.94393 0,-2.92515 1.68917,-5.39711 5.06751,-7.41588 3.41954,-2.05996 8.17807,-3.44013 14.27557,-4.14052 v -4.32592 c 0,-1.68917 -0.63859,-3.06935 -1.91577,-4.14053 -1.23598,-1.07118 -2.80156,-1.60677 -4.69672,-1.60677 -1.60678,0 -3.02815,0.32959 -4.26413,0.98878 -1.19478,0.61799 -1.79217,1.21538 -1.79217,1.79217 z m 12.66879,13.53397 v -4.14054 c -4.77913,0.65919 -8.26047,1.66858 -10.44402,3.02816 -2.14238,1.31837 -3.21356,3.25474 -3.21356,5.80909 0,1.56557 0.41199,2.80155 1.23599,3.70794 0.86518,0.86519 2.01875,1.29778 3.46073,1.29778 2.38956,0 4.47013,-0.90638 6.24171,-2.71915 1.81276,-1.85397 2.71915,-4.18173 2.71915,-6.98328 z m 12.96106,-14.89355 v -2.16296 c 5.3971,-0.90639 8.09566,-5.04692 8.09566,-12.4216 h 2.10117 v 11.74182 h 9.39344 v 2.84274 h -9.39344 v 18.60148 c 0,1.56557 0.37079,2.80155 1.11238,3.70793 0.74158,0.90639 1.77156,1.35959 3.08994,1.35959 1.60677,0 2.86335,-0.72099 3.76974,-2.16297 0.94758,-1.44197 1.42138,-3.54314 1.42138,-6.30349 h 2.10116 c 0,3.70794 -0.82399,6.55069 -2.47195,8.52826 -1.60678,1.93637 -3.79035,2.90455 -6.55069,2.90455 -2.34836,0 -4.20233,-0.63859 -5.56191,-1.91577 -1.35958,-1.27718 -2.03936,-3.04875 -2.03936,-5.31472 v -19.40486 z m 30.88273,1.35958 c 0,0.16479 0.35019,0.84458 1.05058,2.03936 0.37079,0.61799 0.55619,1.17419 0.55619,1.66858 0,2.05996 -1.07119,3.08994 -3.21355,3.08994 -1.07118,0 -1.95697,-0.309 -2.65735,-0.92699 -0.6592,-0.65919 -0.98879,-1.58617 -0.98879,-2.78094 0,-2.14237 1.19478,-4.01694 3.58434,-5.62371 2.38956,-1.64797 5.37651,-2.47195 8.96085,-2.47195 3.25475,0 5.80911,0.72098 7.66307,2.16295 1.89516,1.40077 2.84275,3.23414 2.84275,5.50011 v 15.88232 c 0,2.67796 0.82399,4.01694 2.47197,4.01694 0.45318,0 0.86517,-0.0618 1.23596,-0.18539 0.41199,-0.1648 0.84459,-0.412 1.29779,-0.74159 l 1.17418,1.66857 c -1.48318,1.56557 -3.13115,2.34835 -4.94392,2.34835 -2.84275,0 -4.88212,-1.73037 -6.1181,-5.19111 -1.81277,1.89517 -3.37834,3.19295 -4.69672,3.89334 -1.60678,0.86518 -3.56374,1.29777 -5.8709,1.29777 -2.84274,0 -5.0675,-0.61798 -6.67428,-1.85395 -1.56558,-1.23599 -2.34836,-2.88396 -2.34836,-4.94393 0,-2.92515 1.68917,-5.39711 5.06751,-7.41588 3.41954,-2.05996 8.17807,-3.44013 14.27557,-4.14052 v -4.32592 c 0,-1.68917 -0.63859,-3.06935 -1.91577,-4.14053 -1.23599,-1.07118 -2.80156,-1.60677 -4.69672,-1.60677 -1.60678,0 -3.02816,0.32959 -4.26414,0.98878 -1.19478,0.61799 -1.79216,1.21538 -1.79216,1.79217 z m 12.66879,13.53397 v -4.14054 c -4.77913,0.65919 -8.26047,1.66858 -10.44403,3.02816 -2.14237,1.31837 -3.21355,3.25474 -3.21355,5.80909 0,1.56557 0.41199,2.80155 1.23598,3.70794 0.86518,0.86519 2.01876,1.29778 3.46074,1.29778 2.38956,0 4.47012,-0.90638 6.24169,-2.71915 1.81278,-1.85397 2.71917,-4.18173 2.71917,-6.98328 z"
       id="text1"
       style="font-size:63.5px;font-family:AppleMyungjo;-inkscape-font-specification:'AppleMyungjo, Normal';letter-spacing:-0.264583px;word-spacing:-0.209021px;fill:#ffffff;stroke-width:0.527866"
       aria-label="Ura Kata"
       sodipodi:nodetypes="ccccssscsssssccccsssssssscccccsscssscssscccsssccccsssccscsscscscssscccsccscsccscscssccscscsccccsscccssccccscccsccccscscccsssccccssscscscsscscscssscccsccscsccscscssccscscsccccccccsssccccsssccscsscscscssscccsccscsccscscssccscscs" />
    <path
       style="font-size:63.5px;font-family:'Songti SC';-inkscape-font-specification:'Songti SC, Normal';letter-spacing:-0.264583px;word-spacing:-0.209021px;stroke-width:0.529167"
       d="m 234.90766,17.799773 q 4.318,0.6985 6.35,1.905 2.0955,1.2065 2.0955,3.1115 0,1.143 -0.762,2.032 -0.6985,0.889 -1.7145,0.889 -0.9525,0 -1.9685,-2.0955 -1.27,-2.921 -4.445,-4.953 z m 32.0675,8.763 q 0.5715,0.635 0.5715,0.9525 0,0.3175 -0.762,0.3175 h -47.4345 q -2.413,0 -4.2545,0.6985 l -2.3495,-2.7305 q 2.413,0.381 5.207,0.381 h 41.275 l 3.4925,-4.318 z m -18.161,39.0525 q 4.2545,-2.286 8.4455,-6.096 l 3.429,3.429 q 0.381,0.381 0.381,0.6985 0,0.3175 -0.1905,0.4445 -0.1905,0.0635 -0.6985,0.0635 h -0.762 q -1.016,0 -2.667,0.4445 -1.5875,0.4445 -6.096,2.0955 8.128,4.318 18.161,4.2545 v 0.9525 q -4.2545,1.0795 -4.8895,3.302 -0.254,0.635 -0.6985,0.635 -1.016,0 -6.6675,-2.159 -5.6515,-2.159 -9.652,-5.588 -3.937,-3.3655 -6.985,-9.271 h -1.016 q -2.3495,2.8575 -6.096,5.715 v 7.62 l 9.9695,-3.2385 0.381,1.143 -7.493,3.81 q -1.397,0.762 -2.921,1.905 -1.524,1.143 -2.032,1.7145 -0.4445,0.5715 -0.762,0.5715 -0.254,0 -0.762,-0.508 l -2.7305,-3.1115 q 1.3335,-0.762 1.8415,-1.524 0.508,-0.762 0.508,-2.286 v -3.3655 q -7.62,4.5085 -16.764,7.0485 l -0.508,-1.016 q 9.0805,-4.445 13.9065,-7.5565 4.826,-3.175 8.255,-6.9215 h -15.3035 q -2.3495,0 -4.191,0.6985 l -2.3495,-2.794 q 2.413,0.381 5.207,0.381 h 20.8915 v -4.8895 h -15.1765 q -2.413,0 -4.2545,0.6985 l -2.3495,-2.7305 q 2.413,0.3175 5.207,0.3175 h 16.5735 v -4.5085 h -12.954 q -0.127,1.143 -1.8415,1.9685 -1.7145,0.762 -2.3495,0.762 -0.5715,0 -0.5715,-0.635 0,-0.6985 0.254,-2.794 0.3175,-2.0955 0.3175,-5.588 v -2.921 q 0,-3.556 -0.1905,-6.985 l 3.556,1.8415 h 30.1625 l 1.905,-2.4765 3.937,2.921 q 0.508,0.254 0.508,0.635 0,0.381 -0.508,0.5715 l -1.143,0.508 v 4.064 q 0,2.0955 0.127,3.8735 l 0.1905,2.921 q 0,1.0795 -1.778,2.159 -1.7145,1.016 -2.286,1.016 -0.508,0 -0.508,-0.889 v -0.9525 h -12.6365 v 4.5085 h 13.97 l 3.1115,-3.429 3.3655,4.0005 q 0.508,0.508 0.508,0.8255 0,0.3175 -0.6985,0.3175 h -20.2565 v 4.8895 h 18.542 l 3.3655,-4.0005 4.5085,4.699 q 0.381,0.381 0.381,0.6985 0,0.3175 -0.889,0.3175 h -26.67 q 3.1115,4.064 7.4295,6.7945 z m -10.8585,-32.3215 h -12.954 v 4.5085 h 12.954 z m 16.8275,4.5085 v -4.5085 h -12.6365 v 4.5085 z m -29.7815,6.477 h 12.954 v -4.7625 h -12.954 z m 29.7815,0 v -4.7625 h -12.6365 v 4.7625 z m 43.29642,-26.9875 q 4.1275,1.524 6.858,3.2385 2.794,1.651 2.794,4.064 0,2.3495 -1.143,3.7465 -1.143,1.3335 -2.8575,1.3335 -1.4605,0 -1.905,-2.54 -0.6985,-3.556 -1.651,-5.08 -0.9525,-1.5875 -3.048,-3.81 z m 1.7145,26.2255 h 15.8115 l 2.159,-2.794 4.191,3.556 q 0.8255,0.508 0.8255,0.8255 0,0.254 -0.8255,0.762 l -1.9685,1.4605 q -0.9525,9.3345 -1.778,14.5415 -0.762,5.1435 -1.2065,6.6675 -0.4445,1.524 -1.524,2.794 -1.0795,1.27 -3.6195,2.7305 -2.4765,1.4605 -3.2385,1.4605 -0.6985,0 -0.762,-1.143 -0.127,-2.159 -1.5875,-3.302 -1.4605,-1.0795 -6.1595,-2.4765 l 0.254,-1.2065 q 6.096,1.143 8.509,1.143 2.4765,0 3.302,-1.0795 0.8255,-1.0795 1.7145,-6.096 0.889,-5.0165 1.524,-16.0655 h -15.9385 q -2.413,12.8905 -7.493,19.558 -5.08,6.6675 -17.272,11.3665 l -0.508,-1.016 q 11.684,-5.842 16.129,-14.1605 4.445,-8.3185 6.4135,-27.94 h -14.4145 q -2.6035,0 -4.318,0.635 l -2.3495,-2.794 q 2.413,0.3175 5.2705,0.3175 h 42.9895 l 3.8735,-4.6355 4.5085,5.334 q 0.4445,0.508 0.4445,0.8255 0,0.3175 -0.889,0.3175 h -30.6705 q -0.3175,4.6355 -1.397,10.414 z"
       id="text2"
       aria-label="裏方" />
    <g
       id="text3"
       style="font-size:25.4px;font-family:AppleMyungjo;-inkscape-font-specification:'AppleMyungjo, Normal';letter-spacing:-0.264583px;word-spacing:-0.209021px;stroke-width:0.529167"
       aria-label="A modest, modal&#10;REPL for Godot."
       transform="translate(0.52916667,4.104936)">
      <path
         d="M 13.680894,33.869766 19.925577,18.3324 h 0.817756 l 6.59161,16.751609 q 0.371707,1.016 1.610731,1.016 h 0.569951 v 0.941659 h -7.310243 v -0.941659 h 0.594731 q 1.932878,0 1.932878,-0.768195 0,-0.223024 -0.09912,-0.446048 L 23.12226,30.970449 h -7.260683 l -0.842537,2.255024 q -0.223024,0.594732 -0.247805,0.743414 -0.09912,0.371708 -0.09912,0.743415 0,0.545171 0.594732,0.966439 0.619512,0.421268 1.635512,0.421268 h 0.619512 v 0.941659 h -6.64117 v -0.941659 h 0.198244 q 1.709853,0 2.601951,-2.230243 z m 9.069658,-3.840976 -3.196683,-8.15278 -3.271024,8.15278 z m 28.131053,0.09912 v 4.980878 q 0,0.991219 1.115122,0.991219 h 0.792976 v 0.941659 h -5.872976 v -0.941659 h 0.644293 q 1.263805,0 1.263805,-0.867317 v -5.352585 q 0,-3.246244 -2.230244,-3.246244 -1.313366,0 -2.155903,1.090342 -0.842536,1.090341 -0.842536,2.775414 v 4.609171 q 0,0.545171 0.272585,0.768195 0.272586,0.223024 0.99122,0.223024 h 0.594731 v 0.941659 h -5.848195 v -0.941659 h 0.892098 q 1.04078,0 1.04078,-0.867317 v -7.607609 q 0,-0.718634 -0.371707,-0.966439 -0.346927,-0.272586 -1.263805,-0.371708 v -0.867317 l 3.320586,-0.198244 q 0.123902,0.569952 0.247804,1.288586 0.123903,0.718634 0.123903,1.189463 0.892097,-1.288585 1.784195,-1.883317 0.916878,-0.594732 2.155902,-0.594732 2.428488,0 3.171903,2.676293 1.685073,-2.676293 4.138341,-2.676293 1.561171,0 2.453268,1.090342 0.892098,1.090341 0.892098,3.048 v 5.749073 q 0,0.991219 1.288585,0.991219 h 0.569952 v 0.941659 h -5.823415 v -0.941659 h 0.545171 q 1.362926,0 1.362926,-0.991219 v -5.749073 q 0,-1.263805 -0.619512,-1.982439 -0.619512,-0.718634 -1.685073,-0.718634 -1.263805,0 -2.106341,1.115122 -0.842537,1.090341 -0.842537,2.354146 z m 15.223203,-5.055219 q 2.378926,0 3.940097,1.709853 1.585951,1.709854 1.585951,4.485268 0,2.725854 -1.610731,4.435708 -1.610732,1.685073 -3.940098,1.685073 -2.329366,0 -3.890537,-1.709854 -1.53639,-1.734634 -1.53639,-4.435707 0,-2.701073 1.53639,-4.435707 1.536391,-1.734634 3.915318,-1.734634 z m 0,0.892097 q -1.51161,0 -2.354147,1.338146 -0.817756,1.313366 -0.817756,3.816195 0,2.651513 0.817756,4.014439 0.817756,1.362927 2.378927,1.362927 1.561171,0 2.378927,-1.387707 0.842536,-1.387707 0.842536,-4.03922 0,-2.502829 -0.867317,-3.791414 -0.842536,-1.313366 -2.378926,-1.313366 z M 81.228895,37.041666 80.931529,34.68752 q -1.462049,2.55239 -3.766634,2.55239 -2.032,0 -3.394927,-1.685073 -1.362927,-1.709854 -1.362927,-4.386147 0,-2.651512 1.462049,-4.336585 1.462049,-1.709854 3.518829,-1.709854 2.255025,0 3.54361,2.205464 v -6.542049 q 0,-1.139902 -1.685073,-1.139902 H 78.45348 v -0.916878 l 4.53483,-0.247805 v 15.884292 q 0,1.734634 1.387707,1.734634 h 0.817756 v 0.941659 z M 77.710066,26.088692 q -2.924098,0 -2.924098,4.733074 0,5.278243 2.899317,5.278243 1.437269,0 2.329366,-1.387707 0.916878,-1.387707 0.916878,-3.865756 0,-2.131122 -0.916878,-3.444488 -0.916878,-1.313366 -2.304585,-1.313366 z m 17.899525,7.434147 0.817756,0.346927 q -1.808976,3.518829 -5.228683,3.518829 -2.354146,0 -3.940097,-1.660293 -1.561171,-1.685073 -1.561171,-4.336585 0,-2.800195 1.53639,-4.55961 1.53639,-1.759414 3.890537,-1.759414 2.378926,0 3.791414,1.685073 1.437268,1.660292 1.437268,4.60917 h -8.326243 q 0,0.966439 0.123902,1.709854 0.123903,0.743415 0.421268,1.288585 1.016,1.908098 3.147122,1.908098 2.428488,0 3.890537,-2.750634 z m -7.582829,-3.097561 h 5.030439 q 0.941658,0 0.941658,-1.239025 0,-1.387707 -0.842536,-2.354146 -0.817756,-0.991219 -2.00722,-0.991219 -1.387707,0 -2.255024,1.214244 -0.867317,1.214243 -0.867317,3.370146 z m 9.151989,2.255024 h 0.817756 q 0.718634,2.00722 1.685073,2.924098 0.96644,0.892097 2.55239,0.892097 1.2638,0 2.00722,-0.569951 0.76819,-0.594732 0.76819,-1.51161 0,-1.462048 -1.80897,-1.784195 l -3.19668,-0.693853 q -1.214248,-0.297366 -1.932882,-1.139903 -0.693854,-0.842536 -0.693854,-1.932878 0,-1.486829 1.065561,-2.55239 1.090342,-1.090342 2.874535,-1.090342 1.53639,0 2.8002,0.941659 l 0.81775,-0.867317 h 0.52039 l 0.29737,4.138341 h -0.81776 q -0.52039,-1.685073 -1.41248,-2.502829 -0.8921,-0.817756 -2.32937,-0.817756 -1.18946,0 -1.883318,0.594732 -0.669073,0.569951 -0.669073,1.412487 0,1.48683 5.055221,2.378927 1.23902,0.198244 2.00722,1.090342 0.76819,0.892097 0.76819,2.106341 0,1.610732 -1.21424,2.651512 -1.21424,1.040781 -3.048,1.040781 -0.96644,0 -1.70985,-0.272586 -0.718638,-0.247804 -1.511614,-0.867317 l -0.892097,1.040781 h -0.669074 z m 9.697169,-6.12078 v -0.867317 q 3.24624,-0.545171 3.24624,-4.980878 h 0.84254 v 4.708292 h 3.76663 v 1.139903 h -3.76663 v 7.458926 q 0,0.941659 0.44604,1.48683 0.44605,0.54517 1.23903,0.54517 0.96644,0 1.51161,-0.867317 0.56995,-0.867317 0.56995,-2.527609 h 0.84254 q 0,2.230244 -0.99122,3.419707 -0.96644,1.164683 -2.62673,1.164683 -1.41249,0 -2.23025,-0.768195 -0.81775,-0.768195 -0.81775,-2.131122 v -7.781073 z m 12.59648,14.793951 -0.47083,-0.594732 q 2.37892,-1.833756 2.37892,-3.221463 0,-0.346927 -0.27258,-0.346927 l -0.64429,0.07434 q -0.54518,0 -0.96644,-0.446048 -0.42127,-0.446049 -0.42127,-1.040781 0,-0.594732 0.39649,-1.016 0.42126,-0.446049 1.11512,-0.446049 0.84253,0 1.36292,0.644293 0.52039,0.644293 0.52039,1.759415 0,2.428487 -2.99843,4.633951 z m 27.43721,-11.225561 v 4.980878 q 0,0.991219 1.11512,0.991219 h 0.79297 v 0.941659 h -5.87297 v -0.941659 h 0.64429 q 1.2638,0 1.2638,-0.867317 v -5.352585 q 0,-3.246244 -2.23024,-3.246244 -1.31337,0 -2.1559,1.090342 -0.84254,1.090341 -0.84254,2.775414 v 4.609171 q 0,0.545171 0.27259,0.768195 0.27258,0.223024 0.99122,0.223024 h 0.59473 v 0.941659 h -5.8482 v -0.941659 h 0.8921 q 1.04078,0 1.04078,-0.867317 v -7.607609 q 0,-0.718634 -0.37171,-0.966439 -0.34692,-0.272586 -1.2638,-0.371708 v -0.867317 l 3.32058,-0.198244 q 0.12391,0.569952 0.24781,1.288586 0.1239,0.718634 0.1239,1.189463 0.8921,-1.288585 1.7842,-1.883317 0.91687,-0.594732 2.1559,-0.594732 2.42849,0 3.1719,2.676293 1.68507,-2.676293 4.13834,-2.676293 1.56117,0 2.45327,1.090342 0.8921,1.090341 0.8921,3.048 v 5.749073 q 0,0.991219 1.28858,0.991219 h 0.56996 v 0.941659 h -5.82342 v -0.941659 h 0.54517 q 1.36293,0 1.36293,-0.991219 v -5.749073 q 0,-1.263805 -0.61951,-1.982439 -0.61952,-0.718634 -1.68508,-0.718634 -1.2638,0 -2.10634,1.115122 -0.84253,1.090341 -0.84253,2.354146 z m 15.2232,-5.055219 q 2.37892,0 3.94009,1.709853 1.58596,1.709854 1.58596,4.485268 0,2.725854 -1.61074,4.435708 -1.61073,1.685073 -3.94009,1.685073 -2.32937,0 -3.89054,-1.709854 -1.53639,-1.734634 -1.53639,-4.435707 0,-2.701073 1.53639,-4.435707 1.53639,-1.734634 3.91532,-1.734634 z m 0,0.892097 q -1.51161,0 -2.35415,1.338146 -0.81776,1.313366 -0.81776,3.816195 0,2.651513 0.81776,4.014439 0.81776,1.362927 2.37893,1.362927 1.56117,0 2.37892,-1.387707 0.84254,-1.387707 0.84254,-4.03922 0,-2.502829 -0.86732,-3.791414 -0.84253,-1.313366 -2.37892,-1.313366 z m 15.12408,11.076878 -0.29736,-2.354146 q -1.46205,2.55239 -3.76664,2.55239 -2.032,0 -3.39493,-1.685073 -1.36292,-1.709854 -1.36292,-4.386147 0,-2.651512 1.46205,-4.336585 1.46205,-1.709854 3.51883,-1.709854 2.25502,0 3.54361,2.205464 v -6.542049 q 0,-1.139902 -1.68508,-1.139902 h -0.79297 v -0.916878 l 4.53483,-0.247805 v 15.884292 q 0,1.734634 1.3877,1.734634 h 0.81776 v 0.941659 z m -3.51883,-10.952976 q -2.9241,0 -2.9241,4.733074 0,5.278243 2.89932,5.278243 1.43727,0 2.32937,-1.387707 0.91688,-1.387707 0.91688,-3.865756 0,-2.131122 -0.91688,-3.444488 -0.91688,-1.313366 -2.30459,-1.313366 z m 10.96099,1.016 q 0,0.09912 0.42127,0.817757 0.22303,0.371707 0.22303,0.669073 0,1.239024 -1.28859,1.239024 -0.64429,0 -1.06556,-0.371707 -0.39649,-0.396488 -0.39649,-1.115122 0,-1.288585 1.43727,-2.255025 1.43727,-0.991219 3.59317,-0.991219 1.95766,0 3.07278,0.867317 1.1399,0.842537 1.1399,2.205463 v 6.368586 q 0,1.610731 0.99122,1.610731 0.27259,0 0.49561,-0.07434 0.24781,-0.09912 0.52039,-0.297366 l 0.47083,0.669073 q -0.89209,0.941659 -1.98244,0.941659 -1.70985,0 -2.45326,-2.081561 -1.09035,1.139902 -1.88332,1.561171 -0.96644,0.52039 -2.35415,0.52039 -1.70985,0 -2.67629,-0.743415 -0.94166,-0.743414 -0.94166,-1.982439 0,-1.759414 2.032,-2.973658 2.05678,-1.239025 5.72429,-1.660293 v -1.734634 q 0,-1.016 -0.76819,-1.660293 -0.74342,-0.644292 -1.88332,-0.644292 -0.96644,0 -1.70985,0.396487 -0.71864,0.371708 -0.71864,0.718634 z m 5.08,5.426927 v -1.660292 q -2.87453,0.396487 -4.1879,1.214243 -1.28858,0.792976 -1.28858,2.329366 0,0.941659 0.49561,1.48683 0.52039,0.52039 1.3877,0.52039 1.43727,0 2.50283,-1.090342 1.09034,-1.115122 1.09034,-2.800195 z m 5.1128,-13.802731 4.58439,-0.247805 v 16.825951 q 0,0.346927 0.27259,0.569951 0.27259,0.223024 0.69385,0.223024 h 1.21425 v 0.941659 h -6.56683 v -0.941659 h 1.16468 q 1.16468,0 1.16468,-1.04078 V 20.959132 q 0,-0.619513 -0.39648,-0.966439 -0.39649,-0.346927 -1.09035,-0.346927 h -1.04078 z"
         id="path4" />
      <path
         d="m 16.580211,59.821131 v 7.161561 q 0,0.867317 0.966439,0.867317 h 1.957658 v 0.941658 h -8.524487 v -0.941658 h 1.808975 q 1.164683,0 1.164683,-0.867317 V 52.337424 q 0,-0.52039 -0.272585,-0.718634 -0.247805,-0.198244 -0.892098,-0.198244 h -1.808975 v -0.941659 h 9.466146 q 2.725854,0 4.262244,1.214244 1.53639,1.214244 1.53639,3.295805 0,1.685073 -1.139902,2.824976 -0.817756,0.817756 -2.032,1.189463 -0.867317,0.272585 -2.725854,0.470829 1.709854,0.470829 2.453268,0.99122 1.115122,0.768195 1.462049,2.155902 1.164683,4.708293 2.032,4.708293 0.470829,0 0.768195,-0.693854 0.322146,-0.693854 0.322146,-1.883317 h 0.842537 q 0,4.237463 -3.122341,4.237463 -1.338147,0 -2.155903,-0.966439 -0.792975,-0.966439 -0.792975,-2.750634 0,-2.849756 -0.792976,-4.064 -0.916878,-1.387707 -3.295805,-1.387707 z m 0,-7.508488 v 6.566829 h 2.180683 q 2.428488,0 3.518829,-0.867317 1.115122,-0.892097 1.115122,-2.874536 0,-2.403707 -1.288585,-3.171903 -0.916878,-0.54517 -3.394927,-0.54517 -1.115122,0 -1.288585,0.02478 -0.842537,0.123903 -0.842537,0.867317 z m 12.274325,-0.892097 v -0.941659 h 14.496585 l 0.371707,6.170342 h -0.842536 q -0.49561,-2.750634 -1.51161,-3.989659 -1.016,-1.239024 -2.849756,-1.239024 h -3.593171 q -0.892097,0 -0.892097,0.916878 v 6.517268 h 1.585951 q 1.362927,0 2.131122,-0.916878 0.768195,-0.916878 0.768195,-2.750634 h 0.867317 v 8.499707 h -0.867317 q 0,-3.915317 -3.023219,-3.915317 h -1.462049 v 7.260683 q 0,0.817756 1.164683,0.817756 h 2.849756 q 4.633951,0 5.303024,-5.872976 h 0.892098 l -0.297366,6.814634 H 28.854536 v -0.941658 h 1.239024 q 1.338147,0 1.338147,-0.99122 V 52.337424 q 0,-0.916878 -1.090342,-0.916878 z m 16.164889,0 v -0.941659 h 9.020097 q 2.973659,0 4.633952,1.362927 1.660292,1.338146 1.660292,3.642732 0,2.304585 -1.759414,3.692292 -1.734634,1.362927 -4.782634,1.362927 h -3.271025 v 6.244683 q 0,1.065561 1.189464,1.065561 h 2.081561 v 0.941658 h -8.772293 v -0.941658 h 1.808976 q 1.065561,0 1.065561,-0.792976 V 52.486107 q 0,-1.065561 -1.189464,-1.065561 z m 5.501268,1.115122 v 7.062439 h 2.502829 q 2.354147,0 3.345366,-0.941659 1.016,-0.966439 1.016,-3.271024 0,-2.428488 -1.090341,-3.246244 -0.941659,-0.718634 -3.56839,-0.718634 -1.263805,0 -1.610732,0.123902 -0.594732,0.223025 -0.594732,0.99122 z m 10.614059,-1.115122 v -0.941659 h 8.499707 v 0.941659 h -2.032 q -0.966439,0 -0.966439,0.867317 v 14.793951 q 0,0.768195 1.48683,0.768195 h 2.55239 q 2.230244,0 3.469268,-1.462049 1.239024,-1.462049 1.808976,-4.658731 h 0.867317 l -0.396488,7.062438 H 61.134752 v -0.941658 h 1.51161 q 0.743415,0 1.065561,-0.247805 0.322146,-0.272585 0.322146,-0.966439 V 52.312643 q 0,-0.892097 -0.817756,-0.892097 z m 30.584326,3.196683 v 2.55239 h 2.899317 v 1.090341 h -2.899317 v 8.474927 q 0,1.115122 1.313366,1.115122 h 1.585951 v 0.941658 h -7.112 v -0.941658 h 0.991219 q 0.619513,0 0.892098,-0.198244 0.272585,-0.198244 0.272585,-0.718634 V 58.25996 h -2.007219 v -1.090341 h 2.007219 v -0.867317 q 0,-2.948878 1.214244,-4.633951 1.239025,-1.685074 3.246244,-1.685074 1.362927,0 2.155902,0.669074 0.792976,0.669073 0.792976,1.808975 0,0.718634 -0.346927,1.139903 -0.346927,0.421268 -0.966439,0.421268 -0.52039,0 -0.867317,-0.322146 -0.346927,-0.322147 -0.346927,-0.892098 0,-0.421268 0.272586,-0.768195 0.123902,-0.148683 0.52039,-0.49561 l 0.02478,-0.09912 q 0,-0.223024 -0.346926,-0.396488 -0.322147,-0.173463 -0.792976,-0.173463 -1.139902,0 -1.833756,0.966439 -0.669073,0.966439 -0.669073,2.775415 z m 9.746742,2.205463 q 2.37893,0 3.9401,1.709854 1.58595,1.709853 1.58595,4.485268 0,2.725854 -1.61073,4.435707 -1.61073,1.685073 -3.9401,1.685073 -2.329363,0 -3.890534,-1.709853 -1.53639,-1.734634 -1.53639,-4.435708 0,-2.701073 1.53639,-4.435707 1.53639,-1.734634 3.915314,-1.734634 z m 0,0.892098 q -1.511607,0 -2.354143,1.338146 -0.817757,1.313366 -0.817757,3.816195 0,2.651512 0.817757,4.014439 0.817756,1.362927 2.378923,1.362927 1.56117,0 2.37893,-1.387708 0.84254,-1.387707 0.84254,-4.039219 0,-2.502829 -0.86732,-3.791415 -0.84254,-1.313365 -2.37893,-1.313365 z m 6.104,0.346926 v -0.892097 l 4.16312,-0.198244 v 4.683512 q 0.69385,-2.354146 1.63551,-3.518829 0.94166,-1.164683 2.32937,-1.164683 0.94166,0 1.48683,0.594732 0.56995,0.569951 0.56995,1.585951 0,0.693853 -0.37171,1.139902 -0.37171,0.446049 -0.96644,0.446049 -0.54517,0 -0.8921,-0.371707 -0.32214,-0.396488 -0.32214,-1.016 0,-0.346927 0.17346,-0.718634 0.17346,-0.371708 0.17346,-0.446049 0,-0.04956 -0.0991,-0.09912 -0.0248,0 -0.1239,-0.02478 -1.06556,0 -2.18068,2.081561 -1.09035,2.056781 -1.09035,4.361366 v 2.478049 q 0,0.867317 1.31337,0.867317 h 1.48683 v 0.941658 h -7.21112 v -0.941658 h 1.1399 q 1.21424,0 1.21424,-0.792976 v -7.384585 q 0,-1.610732 -1.41248,-1.610732 z m 35.83781,11.126439 h -0.79298 l -0.94166,-3.097561 q -0.96644,1.561171 -2.20546,2.329366 -1.21424,0.768195 -2.87454,0.768195 -3.71707,0 -6.17034,-2.651512 -2.42849,-2.676293 -2.42849,-6.839414 0,-4.138342 2.60196,-6.963317 2.47804,-2.676293 5.77385,-2.676293 1.36293,0 2.52761,0.52039 0.84254,0.371708 2.05678,1.313366 l 1.016,-1.833756 h 0.84254 l 0.44604,7.335024 h -0.76819 q -0.96644,-3.221463 -2.40371,-4.782634 -1.43727,-1.585951 -3.51883,-1.585951 -2.99844,0 -4.48526,2.874537 -0.49561,0.966439 -0.74342,2.403707 -0.22302,1.412488 -0.22302,3.394927 0,8.623609 5.37736,8.623609 2.00722,0 3.22147,-1.239024 1.23902,-1.263805 1.23902,-3.246244 v -1.685073 q 0,-0.867317 -1.33815,-0.867317 h -1.56117 v -0.867317 h 7.70673 v 0.867317 h -1.04078 q -1.31336,0 -1.31336,0.941658 z m 8.28469,-12.365463 q 2.37892,0 3.94009,1.709854 1.58596,1.709853 1.58596,4.485268 0,2.725854 -1.61074,4.435707 -1.61073,1.685073 -3.94009,1.685073 -2.32937,0 -3.89054,-1.709853 -1.53639,-1.734634 -1.53639,-4.435708 0,-2.701073 1.53639,-4.435707 1.53639,-1.734634 3.91532,-1.734634 z m 0,0.892098 q -1.51161,0 -2.35415,1.338146 -0.81776,1.313366 -0.81776,3.816195 0,2.651512 0.81776,4.014439 0.81776,1.362927 2.37893,1.362927 1.56117,0 2.37892,-1.387708 0.84254,-1.387707 0.84254,-4.039219 0,-2.502829 -0.86732,-3.791415 -0.84253,-1.313365 -2.37892,-1.313365 z m 15.1241,11.076877 -0.29737,-2.354146 q -1.46205,2.55239 -3.76663,2.55239 -2.032,0 -3.39493,-1.685073 -1.36293,-1.709853 -1.36293,-4.386146 0,-2.651512 1.46205,-4.336585 1.46205,-1.709854 3.51883,-1.709854 2.25502,0 3.54361,2.205463 v -6.542048 q 0,-1.139903 -1.68507,-1.139903 H 164.041 v -0.916878 l 4.53483,-0.247805 v 15.884293 q 0,1.734634 1.38771,1.734634 h 0.81775 v 0.941658 z m -3.51883,-10.952975 q -2.9241,0 -2.9241,4.733073 0,5.278244 2.89932,5.278244 1.43726,0 2.32936,-1.387707 0.91688,-1.387708 0.91688,-3.865756 0,-2.131122 -0.91688,-3.444488 -0.91688,-1.313366 -2.30458,-1.313366 z m 13.51336,-1.016 q 2.37893,0 3.9401,1.709854 1.58595,1.709853 1.58595,4.485268 0,2.725854 -1.61073,4.435707 -1.61073,1.685073 -3.9401,1.685073 -2.32936,0 -3.89053,-1.709853 -1.53639,-1.734634 -1.53639,-4.435708 0,-2.701073 1.53639,-4.435707 1.53639,-1.734634 3.91531,-1.734634 z m 0,0.892098 q -1.51161,0 -2.35414,1.338146 -0.81776,1.313366 -0.81776,3.816195 0,2.651512 0.81776,4.014439 0.81775,1.362927 2.37892,1.362927 1.56117,0 2.37893,-1.387708 0.84254,-1.387707 0.84254,-4.039219 0,-2.502829 -0.86732,-3.791415 -0.84254,-1.313365 -2.37893,-1.313365 z m 6.10401,0.594731 v -0.867317 q 3.24624,-0.545171 3.24624,-4.980878 h 0.84254 v 4.708293 h 3.76663 v 1.139902 h -3.76663 v 7.458927 q 0,0.941659 0.44604,1.486829 0.44605,0.545171 1.23903,0.545171 0.96644,0 1.51161,-0.867317 0.56995,-0.867317 0.56995,-2.52761 h 0.84254 q 0,2.230244 -0.99122,3.419707 -0.96644,1.164683 -2.62673,1.164683 -1.41249,0 -2.23025,-0.768195 -0.81775,-0.768195 -0.81775,-2.131122 v -7.781073 z m 14.03374,7.781073 q 0.6443,0 1.04078,0.446049 0.42127,0.421268 0.42127,1.065561 0,0.644293 -0.42127,1.090342 -0.42126,0.446048 -1.06556,0.446048 -0.64429,0 -1.09034,-0.421268 -0.42127,-0.446049 -0.42127,-1.090341 0,-0.594732 0.44605,-1.065561 0.44605,-0.47083 1.09034,-0.47083 z"
         id="path5" />
    </g>
    <path
       style="font-size:63.5px;font-family:Silom;-inkscape-font-specification:'Silom, Normal';letter-spacing:-0.264583px;word-spacing:-0.209021px;fill:#ffffff;stroke-width:0.619867"
       d="m 37.494201,140.07717 -14.647318,23.40631 h -8.628145 l 14.647319,-23.40631 -14.647319,-23.4063 h 8.628145 z"
       id="text4"
       aria-label="&gt;"
       sodipodi:nodetypes="ccccccc" />
  </g>
</svg>
